<svg id="Layer_1" data-name="Layer 1" xmlns="http://www.w3.org/2000/svg" viewBox="0 0 238.92 241.95"><defs><style>.cls-1{fill:#f7931e;}.cls-2{fill:#f15a24;}.cls-3{fill:#fff;}.cls-4{fill:#fbb03b;}</style></defs><title>pie</title><g id="pie"><g id="ETH-Segment"><path class="cls-1" d="M186.87,62.26l-5.37-.16V174.49l17,8.15,92.07,44.15A119.5,119.5,0,0,0,186.87,62.26Zm37.55,75.06h-5.74v3.89h5.38v2h-5.38v4.48h5.74v2h-8.07V135.36h8.07Zm12.22,0h-4.2v12.27h-2.33V137.36h-4.2v-2h10.73Zm13.45,12.27h-2.35v-6.43h-6.58v6.43h-2.33V135.36h2.33v5.84h6.58v-5.84h2.35Z" transform="translate(-60.54 -59.02)"/></g><g id="BTC-Segment"><path class="cls-2" d="M178.5,62.08V174.81l-87,87A119.45,119.45,0,0,1,176.46,62.11Z" transform="translate(-60.54 -59.02)"/><path class="cls-3" d="M180,59.05l1.49,0V59Z" transform="translate(-60.54 -59.02)"/></g><path class="cls-3" d="M117.5,150.37a3.66,3.66,0,0,0-2.21-1.11v-.1a2.85,2.85,0,0,0,1.86-1.05,3.27,3.27,0,0,0,.64-2.08,3,3,0,0,0-1.31-2.71,8.1,8.1,0,0,0-4.27-.86H108v14.28h5.15a5.82,5.82,0,0,0,3.74-1.09,3.69,3.69,0,0,0,1.34-3A3.4,3.4,0,0,0,117.5,150.37Zm-7.19-6h2a4.51,4.51,0,0,1,2.31.45,1.58,1.58,0,0,1,.73,1.46,1.77,1.77,0,0,1-.68,1.57,3.79,3.79,0,0,1-2.13.47h-2.25Zm4.69,9.8a3.6,3.6,0,0,1-2.21.56h-2.48v-4.52h2.36a4,4,0,0,1,2.32.54,1.88,1.88,0,0,1,.76,1.65A2.06,2.06,0,0,1,115,154.21Z" transform="translate(-60.54 -59.02)"/><path class="cls-3" d="M119.58,142.46v2h4.2v12.28h2.33V144.46h4.2v-2Z" transform="translate(-60.54 -59.02)"/><path class="cls-3" d="M138.57,154.94a3.92,3.92,0,0,1-3.21-1.35,6.18,6.18,0,0,1-1.1-4,6.08,6.08,0,0,1,1.15-3.94,3.84,3.84,0,0,1,3.16-1.42,5.64,5.64,0,0,1,1.7.25,13.76,13.76,0,0,1,1.52.61l.84-2a9,9,0,0,0-4-.92,7.14,7.14,0,0,0-3.62.89,5.8,5.8,0,0,0-2.36,2.56,8.82,8.82,0,0,0-.82,3.9,7.93,7.93,0,0,0,1.68,5.43,6.09,6.09,0,0,0,4.82,1.9,10.79,10.79,0,0,0,3.81-.63v-2c-.61.19-1.2.35-1.77.47A8.47,8.47,0,0,1,138.57,154.94Z" transform="translate(-60.54 -59.02)"/><g id="ZRX-Segment"><path class="cls-4" d="M193.1,237.45a4.35,4.35,0,0,0-2.38-.53h-1.55v4.67h1.62a3.68,3.68,0,0,0,2.37-.61,2.18,2.18,0,0,0,.73-1.79A1.93,1.93,0,0,0,193.1,237.45Zm0,0a4.35,4.35,0,0,0-2.38-.53h-1.55v4.67h1.62a3.68,3.68,0,0,0,2.37-.61,2.18,2.18,0,0,0,.73-1.79A1.93,1.93,0,0,0,193.1,237.45Zm0,0a4.35,4.35,0,0,0-2.38-.53h-1.55v4.67h1.62a3.68,3.68,0,0,0,2.37-.61,2.18,2.18,0,0,0,.73-1.79A1.93,1.93,0,0,0,193.1,237.45Zm0,0a4.35,4.35,0,0,0-2.38-.53h-1.55v4.67h1.62a3.68,3.68,0,0,0,2.37-.61,2.18,2.18,0,0,0,.73-1.79A1.93,1.93,0,0,0,193.1,237.45Zm0,0a4.35,4.35,0,0,0-2.38-.53h-1.55v4.67h1.62a3.68,3.68,0,0,0,2.37-.61,2.18,2.18,0,0,0,.73-1.79A1.93,1.93,0,0,0,193.1,237.45Zm0,0a4.35,4.35,0,0,0-2.38-.53h-1.55v4.67h1.62a3.68,3.68,0,0,0,2.37-.61,2.18,2.18,0,0,0,.73-1.79A1.93,1.93,0,0,0,193.1,237.45Zm0,0a4.35,4.35,0,0,0-2.38-.53h-1.55v4.67h1.62a3.68,3.68,0,0,0,2.37-.61,2.18,2.18,0,0,0,.73-1.79A1.93,1.93,0,0,0,193.1,237.45Zm0,0a4.35,4.35,0,0,0-2.38-.53h-1.55v4.67h1.62a3.68,3.68,0,0,0,2.37-.61,2.18,2.18,0,0,0,.73-1.79A1.93,1.93,0,0,0,193.1,237.45Zm-12.79-60.21L93.58,264a119.46,119.46,0,0,0,195.81-34.41Zm4,72H174.09v-1.62l7.2-10.66h-7v-2h9.82v1.64l-7.22,10.63h7.42Zm10.59,0-3.42-5.71h-2.31v5.71h-2.33V235h4a6.62,6.62,0,0,1,4.09,1,3.72,3.72,0,0,1,1.33,3.13,3.9,3.9,0,0,1-2.77,3.8l4,6.32Zm12.55,0-3.57-5.84-3.6,5.84h-2.5l4.73-7.41L198.08,235h2.6l3.3,5.4,3.3-5.4h2.52l-4.47,6.91,4.81,7.37ZM193.1,237.45a4.35,4.35,0,0,0-2.38-.53h-1.55v4.67h1.62a3.68,3.68,0,0,0,2.37-.61,2.18,2.18,0,0,0,.73-1.79A1.93,1.93,0,0,0,193.1,237.45Zm0,0a4.35,4.35,0,0,0-2.38-.53h-1.55v4.67h1.62a3.68,3.68,0,0,0,2.37-.61,2.18,2.18,0,0,0,.73-1.79A1.93,1.93,0,0,0,193.1,237.45Zm0,0a4.35,4.35,0,0,0-2.38-.53h-1.55v4.67h1.62a3.68,3.68,0,0,0,2.37-.61,2.18,2.18,0,0,0,.73-1.79A1.93,1.93,0,0,0,193.1,237.45Zm0,0a4.35,4.35,0,0,0-2.38-.53h-1.55v4.67h1.62a3.68,3.68,0,0,0,2.37-.61,2.18,2.18,0,0,0,.73-1.79A1.93,1.93,0,0,0,193.1,237.45Zm0,0a4.35,4.35,0,0,0-2.38-.53h-1.55v4.67h1.62a3.68,3.68,0,0,0,2.37-.61,2.18,2.18,0,0,0,.73-1.79A1.93,1.93,0,0,0,193.1,237.45Zm0,0a4.35,4.35,0,0,0-2.38-.53h-1.55v4.67h1.62a3.68,3.68,0,0,0,2.37-.61,2.18,2.18,0,0,0,.73-1.79A1.93,1.93,0,0,0,193.1,237.45Zm0,0a4.35,4.35,0,0,0-2.38-.53h-1.55v4.67h1.62a3.68,3.68,0,0,0,2.37-.61,2.18,2.18,0,0,0,.73-1.79A1.93,1.93,0,0,0,193.1,237.45Zm0,0a4.35,4.35,0,0,0-2.38-.53h-1.55v4.67h1.62a3.68,3.68,0,0,0,2.37-.61,2.18,2.18,0,0,0,.73-1.79A1.93,1.93,0,0,0,193.1,237.45Zm0,0a4.35,4.35,0,0,0-2.38-.53h-1.55v4.67h1.62a3.68,3.68,0,0,0,2.37-.61,2.18,2.18,0,0,0,.73-1.79A1.93,1.93,0,0,0,193.1,237.45Z" transform="translate(-60.54 -59.02)"/></g></g></svg>